<svg width="26" height="26" viewBox="0 0 26 26" fill="none" xmlns="http://www.w3.org/2000/svg">
<rect width="26" height="26" rx="13" fill="#023D95"/>
<path d="M15.8003 10.4209C16.9142 10.4209 17.9826 10.8867 18.7703 11.7158C19.5579 12.5449 20.0005 13.6694 20.0005 14.8419V19.9998H17.2003V14.8419C17.2003 14.4511 17.0528 14.0762 16.7903 13.7999C16.5277 13.5235 16.1716 13.3682 15.8003 13.3682C15.429 13.3682 15.0728 13.5235 14.8103 13.7999C14.5477 14.0762 14.4002 14.4511 14.4002 14.8419V19.9998H11.6001V14.8419C11.6001 13.6694 12.0426 12.5449 12.8303 11.7158C13.618 10.8867 14.6863 10.4209 15.8003 10.4209Z" fill="white"/>
<path d="M8.80012 11.158H6V20H8.80012V11.158Z" fill="white"/>
<path d="M7.40006 8.94735C8.17329 8.94735 8.80012 8.28756 8.80012 7.47367C8.80012 6.65979 8.17329 6 7.40006 6C6.62683 6 6 6.65979 6 7.47367C6 8.28756 6.62683 8.94735 7.40006 8.94735Z" fill="white"/>
</svg>
