<svg width="26" height="26" viewBox="0 0 26 26" fill="none" xmlns="http://www.w3.org/2000/svg">
<rect width="26" height="26" rx="13" fill="#023D95"/>
<path d="M21 6.00729C20.3036 6.49666 19.5324 6.87096 18.7164 7.11575C18.2784 6.61405 17.6962 6.25846 17.0488 6.09707C16.4013 5.93568 15.7196 5.97627 15.0961 6.21337C14.4725 6.45046 13.937 6.87262 13.5622 7.42273C13.1873 7.97285 12.9911 8.62438 13 9.28922V10.0137C11.7219 10.0467 10.4555 9.76435 9.31346 9.19174C8.17145 8.61913 7.18932 7.77405 6.45455 6.73177C6.45455 6.73177 3.54545 13.2522 10.0909 16.1501C8.59311 17.1629 6.80884 17.6708 5 17.5991C11.5455 21.2216 19.5455 17.5991 19.5455 9.26749C19.5448 9.06568 19.5253 8.86438 19.4873 8.66616C20.2295 7.93696 20.7533 7.01629 21 6.00729Z" fill="white"/>
</svg>
